<svg xmlns="http://www.w3.org/2000/svg" version="1.1" xmlns:xlink="http://www.w3.org/1999/xlink" xmlns:svgjs="http://svgjs.com/svgjs" width="46.007" height="13.683"><svg xmlns="http://www.w3.org/2000/svg" width="46.007" height="13.683" viewBox="0 0 12.173 3.62">
<style>
    @media (prefers-color-scheme: dark) {
      .logo-path {
        filter: invert(100%);
      }
    }
  </style>
  <path class="logo-path" fill="#fff" d="M69.885 87.893c.731 0 1.472-.386 1.566-1.294h-.766a.785.785 0 0 1-.78.642c-.405 0-.914-.321-.914-1.146 0-.874.504-1.16.904-1.16.38 0 .726.251.785.621h.76c-.093-.795-.73-1.284-1.555-1.284-.84 0-1.654.588-1.654 1.823 0 1.274.898 1.798 1.654 1.798zm1.83-1.981h.636v-.627h-.636zm0 1.225h.636v-.627h-.636zm2.594.75c.874 0 1.709-.617 1.709-1.817 0-1.18-.835-1.798-1.71-1.798-.878 0-1.703.608-1.703 1.798 0 1.21.83 1.818 1.704 1.818zm0-.646c-.43 0-.949-.341-.949-1.17 0-.816.539-1.142.949-1.142.405 0 .953.326.953 1.141 0 .825-.538 1.17-.953 1.17zm1.96-1.329h.636v-.627h-.635zm0 1.225h.636v-.627h-.635zm2.569.756c.73 0 1.471-.386 1.565-1.294h-.765a.785.785 0 0 1-.78.642c-.406 0-.914-.321-.914-1.146 0-.874.503-1.16.903-1.16.38 0 .727.251.786.621h.76c-.093-.795-.73-1.284-1.555-1.284-.84 0-1.655.588-1.655 1.823 0 1.274.899 1.798 1.655 1.798z" aria-label="C=O=C" font-family="Klima" font-size="4.939" font-weight="700" letter-spacing="0" style="line-height:125%;-inkscape-font-specification:'Klima Bold'" transform="translate(-68.23 -84.272)" word-spacing="0"></path>
</svg><style>@media (prefers-color-scheme: light) { :root { filter: contrast(1) brightness(0.4); } }
@media (prefers-color-scheme: dark) { :root { filter: invert(100%); } }
</style></svg>